<svg xmlns="http://www.w3.org/2000/svg" width="106" height="94" viewBox="0 0 106 94" fill="none">
  <path d="M53 93.6473L48.5801 89.6537C39.0598 80.9561 31.1848 73.5111 24.9551 67.3188C18.7254 61.1265 13.8082 55.6652 10.2035 50.9349C6.59875 46.2047 4.08035 41.925 2.64827 38.096C1.21609 34.2669 0.5 30.4154 0.5 26.5415C0.5 19.1227 3.02029 12.893 8.06087 7.85238C13.1015 2.8118 19.3312 0.291504 26.75 0.291504C31.8803 0.291504 36.6928 1.604 41.1875 4.229C45.6822 6.854 49.6197 10.6718 53 15.6825C56.3803 10.6718 60.3178 6.854 64.8125 4.229C69.3072 1.604 74.1197 0.291504 79.25 0.291504C86.6688 0.291504 92.8985 2.8118 97.9391 7.85238C102.98 12.893 105.5 19.1227 105.5 26.5415C105.5 30.4154 104.784 34.2669 103.352 38.096C101.92 41.925 99.4013 46.2047 95.7965 50.9349C92.1918 55.6652 87.2933 61.1265 81.1011 67.3188C74.9087 73.5111 67.015 80.9561 57.4199 89.6537L53 93.6473Z" fill="#F7F5F2"/>
</svg>