<svg xmlns="http://www.w3.org/2000/svg" width="140" height="140" viewBox="0 0 140 140" fill="none">
  <mask id="mask0_2643_7581" style="mask-type:alpha" maskUnits="userSpaceOnUse" x="0" y="0" width="140" height="140">
    <rect width="140" height="140" fill="#D9D9D9"/>
  </mask>
  <g mask="url(#mask0_2643_7581)">
    <path d="M12.4954 78.3688C10.2968 74.7192 8.6365 71.0023 7.51466 67.2181C6.39291 63.4339 5.83203 59.6946 5.83203 56.0002C5.83203 46.9061 9.00298 39.1882 15.3449 32.8464C21.6867 26.5045 29.4046 23.3335 38.4987 23.3335C44.3993 23.3335 50.0643 24.8647 55.4938 27.9272C60.9234 30.9897 65.7583 35.404 69.9987 41.1699C74.239 35.404 79.074 30.9897 84.5036 27.9272C89.933 24.8647 95.5981 23.3335 101.499 23.3335C110.593 23.3335 118.311 26.5045 124.653 32.8464C130.994 39.1882 134.165 46.9061 134.165 56.0002C134.165 59.5451 133.604 63.1722 132.483 66.8815C131.361 70.5909 129.701 74.3826 127.502 78.2565C126.881 77.4564 126.159 76.7384 125.337 76.1027C124.514 75.467 123.654 74.936 122.757 74.5098C124.604 71.2267 125.995 68.0482 126.93 64.9745C127.865 61.9008 128.332 58.9093 128.332 56.0002C128.332 48.4916 125.737 42.1423 120.547 36.9521C115.357 31.7619 109.007 29.1668 101.499 29.1668C95.4934 29.1668 90.0396 30.9748 85.1374 34.5907C80.2351 38.2067 75.1889 43.3987 69.9987 50.1668C64.8085 43.3762 59.7623 38.1786 54.86 34.5739C49.9578 30.9692 44.504 29.1668 38.4987 29.1668C30.9901 29.1668 24.6408 31.7619 19.4507 36.9521C14.2605 42.1423 11.6654 48.4916 11.6654 56.0002C11.6654 59.0589 12.1328 62.1438 13.0676 65.2549C14.0024 68.366 15.3561 71.4883 17.1284 74.6219C16.2311 75.123 15.3898 75.6727 14.6045 76.271C13.8192 76.8693 13.1162 77.5686 12.4954 78.3688ZM5.83203 122.725V117.688C5.83203 114.083 7.73345 111.105 11.5363 108.753C15.3392 106.401 20.2808 105.224 26.3608 105.224C27.4752 105.224 28.5409 105.267 29.5579 105.354C30.5751 105.44 31.5436 105.58 32.4634 105.774C31.6258 107.27 30.9789 108.837 30.5228 110.475C30.0665 112.112 29.8384 113.859 29.8384 115.713V122.725H5.83203ZM40.832 122.725V116.162C40.832 111.338 43.5225 107.505 48.9033 104.664C54.2842 101.822 61.316 100.401 69.9987 100.401C78.7786 100.401 85.8347 101.822 91.167 104.664C96.4992 107.505 99.1654 111.338 99.1654 116.162V122.725H40.832ZM110.159 122.725V115.713C110.159 113.859 109.955 112.112 109.548 110.475C109.14 108.837 108.529 107.27 107.713 105.774C108.633 105.58 109.596 105.44 110.602 105.354C111.608 105.267 112.657 105.224 113.749 105.224C119.851 105.224 124.78 106.401 128.534 108.753C132.288 111.105 134.165 114.083 134.165 117.688V122.725H110.159ZM26.3608 99.7277C24.05 99.7277 22.0887 98.9219 20.4771 97.3102C18.8654 95.6986 18.0596 93.7373 18.0596 91.4264C18.0596 89.1679 18.8654 87.2384 20.4771 85.6379C22.0887 84.0375 24.05 83.2373 26.3608 83.2373C28.6194 83.2373 30.5676 84.0375 32.2054 85.6379C33.8432 87.2384 34.6621 89.1679 34.6621 91.4264C34.6621 93.7373 33.8432 95.6986 32.2054 97.3102C30.5676 98.9219 28.6194 99.7277 26.3608 99.7277ZM113.749 99.7277C111.513 99.7277 109.57 98.9219 107.921 97.3102C106.272 95.6986 105.447 93.7373 105.447 91.4264C105.447 89.1679 106.272 87.2384 107.921 85.6379C109.57 84.0375 111.513 83.2373 113.749 83.2373C116.082 83.2373 118.049 84.0375 119.649 85.6379C121.25 87.2384 122.05 89.1679 122.05 91.4264C122.05 93.7373 121.25 95.6986 119.649 97.3102C118.049 98.9219 116.082 99.7277 113.749 99.7277ZM69.9987 96.0257C66.4837 96.0257 63.4736 94.7731 60.9683 92.2677C58.4628 89.7624 57.2101 86.7523 57.2101 83.2373C57.2101 79.6251 58.4628 76.5907 60.9683 74.134C63.4736 71.6772 66.4837 70.4487 69.9987 70.4487C73.6109 70.4487 76.6453 71.6772 79.102 74.134C81.5589 76.5907 82.7873 79.6251 82.7873 83.2373C82.7873 86.7523 81.5589 89.7624 79.102 92.2677C76.6453 94.7731 73.6109 96.0257 69.9987 96.0257Z" fill="#F7F5F2"/>
  </g>
</svg>