<svg xmlns="http://www.w3.org/2000/svg" width="106" height="100" viewBox="0 0 106 100" fill="none">
  <path d="M55.7821 99.5002L63.3094 92.5451C73.2634 83.3463 80.1662 76.0827 84.0177 70.7542C87.8692 65.4257 89.7949 60.1813 89.7949 55.021C89.7949 53.615 89.6603 52.2426 89.3911 50.904C89.1218 49.5653 88.6431 48.264 87.9551 47.0002H105.5V99.5002H55.7821ZM0.5 99.5002V47.0002H18.0112C17.4952 48.2939 17.0652 49.6118 16.7212 50.9538C16.3771 52.2959 16.2051 53.6516 16.2051 55.021C16.2051 60.4056 17.9458 65.5752 21.4271 70.5298C24.9083 75.4844 32.0597 82.935 42.8814 92.8815L50.2179 99.5002H0.5ZM93.8255 35.3335C90.5177 35.3335 87.7476 34.218 85.5151 31.9869C83.2828 29.7559 82.1667 26.9913 82.1667 23.6932C82.1667 20.4598 83.2822 17.7026 85.5133 15.4216C87.7443 13.1406 90.5089 12.0002 93.8069 12.0002C97.0404 12.0002 99.7976 13.1352 102.079 15.4052C104.36 17.6753 105.5 20.4318 105.5 23.6747C105.5 26.9825 104.365 29.7526 102.095 31.9849C99.8249 34.2173 97.0684 35.3335 93.8255 35.3335ZM53.0067 29.5002C48.9114 29.5002 45.4559 28.0974 42.6401 25.2919C39.8245 22.4864 38.4167 19.0401 38.4167 14.953C38.4167 10.9353 39.8194 7.49425 42.6248 4.62989C45.4304 1.76563 48.8767 0.333496 52.9637 0.333496C56.9815 0.333496 60.4226 1.75644 63.2869 4.60233C66.1512 7.44821 67.5833 10.8841 67.5833 14.91C67.5833 19.0054 66.1604 22.4609 63.3145 25.2765C60.4686 28.0923 57.0327 29.5002 53.0067 29.5002ZM22.0384 55.021C22.0384 59.3063 23.8333 63.8346 27.423 68.6059C31.0129 73.3773 38.1064 80.6017 48.7036 90.279L53.0785 94.0931L57.4535 89.9425C66.9812 80.9831 73.7812 73.9601 77.8534 68.8734C81.9255 63.7867 83.9616 59.1693 83.9616 55.021C83.9616 50.5338 82.4995 46.8038 79.5754 43.8311C76.6512 40.8583 73.0428 39.3719 68.75 39.3719C66.2147 39.3719 63.8814 39.9627 61.75 41.1444C59.6186 42.326 57.7115 43.7694 56.0288 45.4746L52.9663 48.5706L49.8254 45.5081C48.1651 43.8255 46.2917 42.3822 44.2051 41.1781C42.1186 39.974 39.8002 39.3719 37.25 39.3719C32.8152 39.3719 29.1713 40.8583 26.3182 43.8311C23.465 46.8038 22.0384 50.5338 22.0384 55.021ZM12.1588 35.3335C8.851 35.3335 6.0809 34.218 3.84848 31.9869C1.61616 29.7559 0.5 26.9913 0.5 23.6932C0.5 20.4598 1.61553 17.7026 3.84658 15.4216C6.07764 13.1406 8.8422 12.0002 12.1403 12.0002C15.3737 12.0002 18.1309 13.1352 20.4119 15.4052C22.6929 17.6753 23.8333 20.4318 23.8333 23.6747C23.8333 26.9825 22.6983 29.7526 20.4283 31.9849C18.1582 34.2173 15.4017 35.3335 12.1588 35.3335Z" fill="#F7F5F2"/>
</svg>