<svg xmlns="http://www.w3.org/2000/svg" width="106" height="94" viewBox="0 0 106 94" fill="none">
  <path d="M6.33333 73.6987V87.8333H99.6667V73.6987H6.33333ZM0.5 18.0576H29.375C28.8889 17.1826 28.4794 16.259 28.1466 15.2868C27.8138 14.3146 27.6473 13.2937 27.6473 12.2243C27.6473 8.9337 28.7691 6.16661 31.0127 3.92301C33.2563 1.67941 36.0234 0.557617 39.3141 0.557617C41.2884 0.557617 43.1147 1.07493 44.7929 2.10957C46.4712 3.14431 47.9355 4.42934 49.1859 5.96467L52.7757 10.8781L56.3654 5.96467C57.5919 4.37917 59.0566 3.08164 60.7595 2.07209C62.4624 1.06244 64.2962 0.557617 66.2611 0.557617C69.5358 0.557617 72.295 1.67941 74.5386 3.92301C76.7822 6.16661 77.904 8.9337 77.904 12.2243C77.904 13.2937 77.7562 14.3146 77.4608 15.2868C77.1654 16.259 76.7373 17.1826 76.1764 18.0576H105.5V93.6667H0.5V18.0576ZM6.33333 61.1346H99.6667V23.891H62.0641L73.6411 39.8429L69.0192 43.1859L52.7757 21.0641L36.5321 43.1859L31.9102 39.8429L43.4198 23.891H6.33333V61.1346ZM39.3141 18.0576C40.9669 18.0576 42.3523 17.4986 43.4704 16.3805C44.5884 15.2625 45.1475 13.8771 45.1475 12.2243C45.1475 10.5715 44.5884 9.18609 43.4704 8.06803C42.3523 6.94998 40.9669 6.39095 39.3141 6.39095C37.6613 6.39095 36.2759 6.94998 35.1579 8.06803C34.0398 9.18609 33.4808 10.5715 33.4808 12.2243C33.4808 13.8771 34.0398 15.2625 35.1579 16.3805C36.2759 17.4986 37.6613 18.0576 39.3141 18.0576ZM66.2371 18.0576C67.8899 18.0576 69.2753 17.4986 70.3934 16.3805C71.5115 15.2625 72.0705 13.8771 72.0705 12.2243C72.0705 10.5715 71.5115 9.18609 70.3934 8.06803C69.2753 6.94998 67.8899 6.39095 66.2371 6.39095C64.5844 6.39095 63.199 6.94998 62.0809 8.06803C60.9628 9.18609 60.4038 10.5715 60.4038 12.2243C60.4038 13.8771 60.9628 15.2625 62.0809 16.3805C63.199 17.4986 64.5844 18.0576 66.2371 18.0576Z" fill="#F7F5F2"/>
</svg>