<svg xmlns="http://www.w3.org/2000/svg" width="106" height="82" viewBox="0 0 106 82" fill="none">
  <path d="M0.5 81.8332V57.3779C3.93263 56.1067 6.73525 53.9921 8.90788 51.0343C11.0804 48.0765 12.1667 44.7317 12.1667 40.9998C12.1667 37.268 11.0804 33.9231 8.90788 30.9653C6.73525 28.0075 3.93263 25.893 0.5 24.6217V0.166504H105.5V81.8332H0.5ZM35.0737 60.9453L85.8687 47.4614C87.1774 47.1473 88.215 46.4349 88.9816 45.3244C89.7481 44.2138 89.9743 43.0415 89.6603 41.8075C89.3462 40.5735 88.6076 39.7042 87.4447 39.1994C86.2818 38.6945 85.0833 38.5991 83.8493 38.9132L69.109 42.9294L45.7757 21.0544L39.6283 22.4229L53.6283 46.9229L37.609 50.8716L30.3174 45.3299L26.7949 46.3395L35.0737 60.9453Z" fill="#F7F5F2"/>
</svg>