<svg width="16" height="14" viewBox="0 0 16 14" fill="none" xmlns="http://www.w3.org/2000/svg">
<path d="M7.97116 13.0481C7.36154 12.6308 6.71154 12.3101 6.02116 12.0861C5.33077 11.862 4.61539 11.75 3.875 11.75C3.28172 11.75 2.70384 11.8248 2.14134 11.9743C1.57884 12.1238 1.03172 12.3284 0.5 12.588V3.59519C1.01346 3.30481 1.55601 3.09134 2.12765 2.95481C2.69928 2.81827 3.28172 2.75 3.875 2.75C4.60961 2.75 5.32211 2.86298 6.0125 3.08894C6.70289 3.31491 7.36539 3.61539 8 3.99039V12.1423C8.61539 11.7452 9.27236 11.4555 9.97091 11.2733C10.6695 11.0911 11.3875 11 12.125 11C12.575 11 13.0187 11.0375 13.4562 11.1125C13.8937 11.1875 14.325 11.3048 14.75 11.4644V3.22884C14.8875 3.27788 15.0195 3.3298 15.1459 3.38461C15.2724 3.43943 15.3904 3.50962 15.5 3.59519V12.588C14.9683 12.3284 14.4212 12.1238 13.8587 11.9743C13.2962 11.8248 12.7183 11.75 12.125 11.75C11.375 11.75 10.6452 11.8548 9.93558 12.0644C9.22597 12.2741 8.57116 12.6019 7.97116 13.0481ZM9.5 10.25V3.875L13.25 0.125V6.875L9.5 10.25ZM7.25 11.7861V4.43317C6.72211 4.15241 6.1762 3.92669 5.61226 3.75601C5.04831 3.58534 4.46922 3.5 3.875 3.5C3.425 3.5 2.97572 3.54134 2.52716 3.62403C2.07861 3.70673 1.65289 3.85 1.25 4.05384V11.4688C1.675 11.3255 2.10625 11.2115 2.54375 11.1269C2.98125 11.0423 3.425 11 3.875 11C4.46922 11 5.04999 11.0591 5.61731 11.1774C6.18461 11.2957 6.72884 11.4986 7.25 11.7861Z" fill="#333332"/>
</svg>
