<svg width="18" height="18" viewBox="0 0 18 18" fill="none" xmlns="http://www.w3.org/2000/svg">
<mask id="mask0_169_991" style="mask-type:alpha" maskUnits="userSpaceOnUse" x="0" y="0" width="18" height="18">
<rect width="18" height="18" fill="#D9D9D9"/>
</mask>
<g mask="url(#mask0_169_991)">
<path d="M7.92116 11.9308L12.7183 7.13366L12.1875 6.60289L7.92116 10.8692L5.78366 8.73172L5.25289 9.2625L7.92116 11.9308ZM9.00251 15.75C8.0691 15.75 7.19154 15.5729 6.36983 15.2186C5.54811 14.8644 4.83333 14.3836 4.22548 13.7764C3.61764 13.1691 3.13644 12.455 2.78186 11.634C2.42729 10.8131 2.25 9.93591 2.25 9.00251C2.25 8.0691 2.42712 7.19154 2.78136 6.36983C3.13561 5.54811 3.61637 4.83333 4.22364 4.22548C4.83092 3.61764 5.54503 3.13644 6.36596 2.78186C7.18691 2.42729 8.06409 2.25 8.99749 2.25C9.9309 2.25 10.8085 2.42712 11.6302 2.78136C12.4519 3.13561 13.1667 3.61637 13.7745 4.22364C14.3824 4.83092 14.8636 5.54503 15.2181 6.36596C15.5727 7.18691 15.75 8.06409 15.75 8.99749C15.75 9.9309 15.5729 10.8085 15.2186 11.6302C14.8644 12.4519 14.3836 13.1667 13.7764 13.7745C13.1691 14.3824 12.455 14.8636 11.634 15.2181C10.8131 15.5727 9.93591 15.75 9.00251 15.75Z" fill="#F7F5F2"/>
</g>
</svg>
