<svg width="9" height="10" viewBox="0 0 9 10" fill="none" xmlns="http://www.w3.org/2000/svg">
<path d="M7.50115 9.74969C7.15423 9.74969 6.85898 9.62817 6.61539 9.38511C6.3718 9.14206 6.25001 8.84692 6.25001 8.49969C6.25001 8.4332 6.25578 8.36434 6.26732 8.29309C6.27885 8.22185 6.29616 8.15482 6.31923 8.09201L2.44808 5.81123C2.32564 5.94906 2.18334 6.05659 2.02115 6.13383C1.85898 6.21107 1.68526 6.24969 1.5 6.24969C1.15278 6.24969 0.857638 6.12828 0.614588 5.88544C0.371529 5.64261 0.25 5.34774 0.25 5.00082C0.25 4.65391 0.371529 4.35867 0.614588 4.11508C0.857638 3.87149 1.15278 3.74969 1.5 3.74969C1.68526 3.74969 1.85898 3.78832 2.02115 3.86556C2.18334 3.9428 2.32564 4.05033 2.44808 4.18816L6.31923 1.90738C6.29616 1.84457 6.27885 1.77754 6.26732 1.70629C6.25578 1.63505 6.25001 1.56619 6.25001 1.49969C6.25001 1.15247 6.37142 0.857332 6.61426 0.614282C6.8571 0.371224 7.15197 0.249695 7.49887 0.249695C7.84579 0.249695 8.14104 0.371112 8.38462 0.613945C8.62821 0.856787 8.75001 1.15166 8.75001 1.49856C8.75001 1.84547 8.62848 2.14072 8.38542 2.38431C8.14237 2.6279 7.84723 2.74969 7.50001 2.74969C7.31475 2.74969 7.14103 2.71107 6.97886 2.63383C6.81667 2.55659 6.67437 2.44906 6.55193 2.31123L2.68078 4.59201C2.70385 4.65482 2.72116 4.72163 2.7327 4.79242C2.74424 4.8632 2.75 4.93163 2.75 4.99771C2.75 5.06377 2.74424 5.13287 2.7327 5.20498C2.72116 5.2771 2.70385 5.34457 2.68078 5.40738L6.55193 7.68816C6.67437 7.55033 6.81667 7.4428 6.97886 7.36556C7.14103 7.28832 7.31475 7.24969 7.50001 7.24969C7.84723 7.24969 8.14237 7.37111 8.38542 7.61394C8.62848 7.85678 8.75001 8.15165 8.75001 8.49857C8.75001 8.84548 8.62859 9.14072 8.38576 9.38431C8.14292 9.6279 7.84805 9.74969 7.50115 9.74969Z" fill="#333332"/>
</svg>
