<svg width="23" height="23" viewBox="0 0 23 23" fill="none" xmlns="http://www.w3.org/2000/svg">
<rect width="23" height="23" rx="11.5" fill="#333332"/>
<path d="M16.3119 16.9475C15.051 16.9475 13.8051 16.6726 12.5744 16.1228C11.3437 15.573 10.224 14.7937 9.21523 13.785C8.20646 12.7762 7.42719 11.6565 6.87741 10.4258C6.32762 9.19506 6.05273 7.94923 6.05273 6.68826C6.05273 6.50668 6.11326 6.35537 6.23431 6.23431C6.35537 6.11326 6.50668 6.05273 6.68826 6.05273H9.13958C9.2808 6.05273 9.4069 6.10065 9.51787 6.19648C9.62883 6.29232 9.6944 6.4058 9.71458 6.53694L10.108 8.65537C10.1282 8.81677 10.1231 8.95295 10.0929 9.06392C10.0626 9.17488 10.0071 9.27072 9.92642 9.35142L8.45866 10.8343C8.66041 11.2076 8.89999 11.5682 9.17741 11.9162C9.45482 12.2642 9.75997 12.5997 10.0929 12.9225C10.4056 13.2352 10.7334 13.5252 11.0764 13.7925C11.4194 14.0599 11.7826 14.3045 12.1659 14.5264L13.5883 13.1041C13.6791 13.0133 13.7976 12.9452 13.9439 12.8998C14.0901 12.8544 14.2339 12.8418 14.3751 12.8619L16.4633 13.2856C16.6045 13.326 16.7205 13.3991 16.8113 13.505C16.9021 13.611 16.9475 13.7295 16.9475 13.8606V16.3119C16.9475 16.4935 16.8869 16.6448 16.7659 16.7659C16.6448 16.8869 16.4935 16.9475 16.3119 16.9475ZM7.88366 9.68431L8.88234 8.68563L8.6251 7.26326H7.27839C7.32883 7.67686 7.39944 8.08541 7.49023 8.48892C7.58102 8.89243 7.71216 9.29089 7.88366 9.68431ZM13.3008 15.1014C13.6942 15.2729 14.0952 15.4091 14.5037 15.51C14.9123 15.6108 15.3233 15.6764 15.7369 15.7067V14.3751L14.3146 14.0876L13.3008 15.1014Z" fill="#F7F5F2"/>
</svg>
