<svg width="48" height="48" viewBox="0 0 48 48" fill="none" xmlns="http://www.w3.org/2000/svg">
<g filter="url(#filter0_d_2480_6607)">
<g clip-path="url(#clip0_2480_6607)">
<path d="M22.5938 0H25.4062C26.0352 0.084375 26.6664 0.149219 27.2914 0.257031C30.9172 0.882031 34.1539 2.36094 36.9477 4.76172C40.5789 7.88203 42.8453 11.7977 43.6937 16.5187C43.8172 17.2063 43.8992 17.9016 44 18.5938V21.4062C43.9141 22.0312 43.8484 22.6664 43.7391 23.2914C42.9578 27.7531 40.9266 31.5508 37.618 34.6414C34.7529 37.3143 31.3854 38.9964 27.5156 39.6875C26.8125 39.8125 26.1094 39.8953 25.4062 40H22.5938C22.1453 39.9422 21.6961 39.8898 21.2492 39.8242C17.318 39.2469 13.8273 37.6883 10.8445 35.0586C7.34141 31.9703 5.14609 28.125 4.3125 23.5211C4.18438 22.8203 4.10234 22.1094 4 21.4062V18.5938C4.05781 18.1445 4.10938 17.6945 4.175 17.2461C4.74297 13.3555 6.27891 9.89688 8.8625 6.93359C11.9688 3.36719 15.8539 1.13906 20.5195 0.307813C21.207 0.185156 21.9023 0.101562 22.5938 0ZM12.375 31.8148C12.5188 31.793 12.5836 31.7891 12.6453 31.7727C14.5406 31.2766 16.4375 30.7836 18.3297 30.275C18.4516 30.2396 18.5793 30.2289 18.7054 30.2434C18.8314 30.2578 18.9534 30.2973 19.0641 30.3594C21.5484 31.593 24.1625 31.9648 26.8727 31.3805C33.425 29.968 37.4922 23.6578 36.1094 17.1047C34.7938 10.8594 28.5047 6.68828 22.2391 7.90781C14.2281 9.46641 10.0609 18.2031 13.8961 25.3727C13.9864 25.5642 14.0087 25.7808 13.9594 25.9867C13.7109 26.9672 13.4281 27.9398 13.1609 28.9156C12.9016 29.8633 12.6469 30.8117 12.375 31.8148Z" fill="#333332"/>
<path d="M15.2222 28.9951C15.5292 27.881 15.8082 26.8295 16.1121 25.7849C16.1579 25.6462 16.1708 25.4986 16.1495 25.354C16.1282 25.2094 16.0734 25.0718 15.9894 24.9521C12.4542 19.2256 15.3589 11.8553 21.8488 10.0607C27.4738 8.50526 33.3152 12.2693 34.2386 18.0459C35.1152 23.5279 31.4214 28.6709 25.973 29.5084C23.6042 29.8724 21.3714 29.4303 19.291 28.2185C19.0938 28.1156 18.8669 28.085 18.6496 28.1318C17.6019 28.381 16.5628 28.667 15.5207 28.9389C15.448 28.9576 15.373 28.967 15.2222 28.9951ZM27.5472 25.3904C27.7032 25.403 27.86 25.403 28.016 25.3904C29.3589 25.1709 30.5269 24.3748 30.4769 22.8217C30.4722 22.6654 30.3472 22.431 30.2128 22.3639C29.441 21.9646 28.6503 21.6029 27.8636 21.2295C27.5464 21.0787 27.3089 21.1412 27.0972 21.4451C26.8457 21.8068 26.5425 22.1326 26.266 22.4771C26.0972 22.6873 25.9019 22.7443 25.6464 22.6428C23.8644 21.9357 22.5019 20.7435 21.5238 19.0998C21.3933 18.881 21.4066 18.6951 21.5691 18.4951C21.8251 18.2009 22.058 17.8875 22.266 17.5576C22.3636 17.3904 22.4183 17.1217 22.3542 16.9498C22.0621 16.1584 21.7292 15.3818 21.3886 14.6107C21.316 14.4467 21.1582 14.2365 21.0082 14.2068C20.398 14.0857 19.7863 14.0803 19.3175 14.5974C18.2042 15.8271 18.0472 17.2193 18.7449 18.6459C19.9503 21.1146 21.7527 23.0709 24.1941 24.3701C25.2324 24.9217 26.3324 25.3748 27.5472 25.3904Z" fill="#333332"/>
</g>
</g>
<defs>
<filter id="filter0_d_2480_6607" x="0" y="0" width="48" height="48" filterUnits="userSpaceOnUse" color-interpolation-filters="sRGB">
<feFlood flood-opacity="0" result="BackgroundImageFix"/>
<feColorMatrix in="SourceAlpha" type="matrix" values="0 0 0 0 0 0 0 0 0 0 0 0 0 0 0 0 0 0 127 0" result="hardAlpha"/>
<feOffset dy="4"/>
<feGaussianBlur stdDeviation="2"/>
<feComposite in2="hardAlpha" operator="out"/>
<feColorMatrix type="matrix" values="0 0 0 0 0 0 0 0 0 0 0 0 0 0 0 0 0 0 0.25 0"/>
<feBlend mode="normal" in2="BackgroundImageFix" result="effect1_dropShadow_2480_6607"/>
<feBlend mode="normal" in="SourceGraphic" in2="effect1_dropShadow_2480_6607" result="shape"/>
</filter>
<clipPath id="clip0_2480_6607">
<rect x="4" width="40" height="40" rx="2" fill="white"/>
</clipPath>
</defs>
</svg>
