<svg width="8" height="8" viewBox="0 0 8 8" fill="none" xmlns="http://www.w3.org/2000/svg">
<path d="M3.40065 5.44822L6.06571 2.78315L5.77084 2.48828L3.40065 4.85847L2.21315 3.67097L1.91827 3.96584L3.40065 5.44822ZM4.0014 7.57001C3.48284 7.57001 2.9953 7.47161 2.53879 7.27481C2.08229 7.078 1.68519 6.81091 1.34749 6.47354C1.0098 6.13616 0.742466 5.73944 0.545479 5.28336C0.348493 4.82728 0.25 4.33996 0.25 3.8214C0.25 3.30284 0.348399 2.81531 0.545198 2.3588C0.742004 1.90229 1.00909 1.50519 1.34647 1.1675C1.68385 0.829809 2.08057 0.562473 2.53665 0.365487C2.99273 0.168501 3.48005 0.0700073 3.99861 0.0700073C4.51717 0.0700073 5.00471 0.168407 5.46121 0.365205C5.91772 0.562011 6.31482 0.829101 6.65252 1.16648C6.99021 1.50385 7.25754 1.90058 7.45453 2.35665C7.65152 2.81274 7.75001 3.30006 7.75001 3.81861C7.75001 4.33717 7.65161 4.82471 7.45481 5.28122C7.258 5.73772 6.99091 6.13482 6.65354 6.47252C6.31616 6.81021 5.91944 7.07754 5.46336 7.27453C5.00728 7.47151 4.51996 7.57001 4.0014 7.57001Z" fill="#333332"/>
</svg>
