<svg width="10" height="11" viewBox="0 0 10 11" fill="none" xmlns="http://www.w3.org/2000/svg">
<mask id="mask0_2054_5544" style="mask-type:alpha" maskUnits="userSpaceOnUse" x="0" y="0" width="10" height="11">
<rect y="0.820007" width="10" height="10" fill="#D9D9D9"/>
</mask>
<g mask="url(#mask0_2054_5544)">
<path d="M5.02079 8.94501C4.14899 8.94501 3.40674 8.64079 2.79403 8.03235C2.18131 7.42391 1.87495 6.68646 1.87495 5.82001V5.24229L0.999953 6.11729L0.705078 5.82241L2.08329 4.4442L3.4615 5.82241L3.16662 6.11729L2.29162 5.24229V5.82001C2.29162 6.57321 2.55644 7.2129 3.08609 7.73908C3.61574 8.26525 4.26064 8.52834 5.02079 8.52834C5.18532 8.52834 5.35306 8.51151 5.524 8.47786C5.69494 8.44421 5.86107 8.39373 6.0224 8.32641L6.3349 8.63891C6.12977 8.73827 5.91636 8.81413 5.69467 8.86649C5.47298 8.91883 5.24835 8.94501 5.02079 8.94501ZM7.91663 7.19581L6.53842 5.8176L6.83329 5.52273L7.70829 6.39773V5.82001C7.70829 5.06681 7.44347 4.42711 6.91383 3.90093C6.38417 3.37476 5.73927 3.11167 4.97912 3.11167C4.8146 3.11167 4.64686 3.1285 4.47592 3.16215C4.30498 3.19581 4.13885 3.24629 3.97752 3.3136L3.66502 3.0011C3.87014 2.90174 4.08355 2.82588 4.30525 2.77353C4.52694 2.72118 4.75156 2.69501 4.97912 2.69501C5.85092 2.69501 6.59318 2.99923 7.20589 3.60766C7.8186 4.21611 8.12496 4.95356 8.12496 5.82001V6.39773L8.99996 5.52273L9.29484 5.8176L7.91663 7.19581Z" fill="#333332"/>
</g>
</svg>
