<svg width="149" height="149" viewBox="0 0 149 149" fill="none" xmlns="http://www.w3.org/2000/svg">
<mask id="mask0_2611_3515" style="mask-type:alpha" maskUnits="userSpaceOnUse" x="0" y="0" width="149" height="149">
<rect x="0.275391" width="148.138" height="148.138" fill="#D9D9D9"/>
</mask>
<g mask="url(#mask0_2611_3515)">
<path d="M44.4323 103.981L83.366 83.0901L104.257 44.1564L65.3234 65.0475L44.4323 103.981ZM74.3447 80.2412C72.5958 80.2412 71.1299 79.6497 69.9468 78.4667C68.7638 77.2836 68.1723 75.8177 68.1723 74.0688C68.1723 72.32 68.7638 70.854 69.9468 69.671C71.1299 68.4879 72.5958 67.8964 74.3447 67.8964C76.0935 67.8964 77.5595 68.4879 78.7425 69.671C79.9256 70.854 80.5171 72.32 80.5171 74.0688C80.5171 75.8177 79.9256 77.2836 78.7425 78.4667C77.5595 79.6497 76.0935 80.2412 74.3447 80.2412ZM74.3654 129.621C66.6835 129.621 59.4613 128.163 52.6987 125.248C45.9361 122.332 40.0535 118.375 35.051 113.378C30.0485 108.38 26.0882 102.503 23.1701 95.7466C20.252 88.9903 18.793 81.7713 18.793 74.0895C18.793 66.4076 20.2506 59.1854 23.166 52.4228C26.0814 45.6602 30.038 39.7776 35.0358 34.7751C40.0336 29.7726 45.9106 25.8124 52.6669 22.8943C59.4232 19.9761 66.6422 18.5171 74.324 18.5171C82.0059 18.5171 89.2281 19.9748 95.9907 22.8901C102.753 25.8055 108.636 29.7621 113.638 34.76C118.641 39.7578 122.601 45.6348 125.519 52.391C128.437 59.1473 129.896 66.3664 129.896 74.0481C129.896 81.73 128.439 88.9523 125.523 95.7149C122.608 102.477 118.651 108.36 113.654 113.363C108.656 118.365 102.779 122.325 96.0225 125.243C89.2662 128.161 82.0471 129.621 74.3654 129.621ZM74.3447 123.448C88.1298 123.448 99.8059 118.665 109.373 109.097C118.94 99.53 123.724 87.8539 123.724 74.0688C123.724 60.2838 118.94 48.6076 109.373 39.0404C99.8059 29.4731 88.1298 24.6895 74.3447 24.6895C60.5596 24.6895 48.8835 29.4731 39.3162 39.0404C29.749 48.6076 24.9654 60.2838 24.9654 74.0688C24.9654 87.8539 29.749 99.53 39.3162 109.097C48.8835 118.665 60.5596 123.448 74.3447 123.448Z" fill="#333332"/>
</g>
</svg>
