<svg width="149" height="149" viewBox="0 0 149 149" fill="none" xmlns="http://www.w3.org/2000/svg">
<mask id="mask0_2611_3506" style="mask-type:alpha" maskUnits="userSpaceOnUse" x="0" y="0" width="149" height="149">
<rect x="0.137695" width="148.138" height="148.138" fill="#D9D9D9"/>
</mask>
<g mask="url(#mask0_2611_3506)">
<path d="M24.8271 129.621V43.2067H49.5168C49.5168 36.3301 51.9126 30.4959 56.7041 25.7044C61.4957 20.9129 67.3298 18.5171 74.2065 18.5171C81.0831 18.5171 86.9173 20.9129 91.7088 25.7044C96.5003 30.4959 98.8961 36.3301 98.8961 43.2067H123.586V129.621H24.8271ZM30.9996 123.448H117.413V49.3792H30.9996V123.448ZM74.2065 80.2412C81.0831 80.2412 86.9173 77.8455 91.7088 73.0539C96.5003 68.2624 98.8961 62.4283 98.8961 55.5516H92.7237C92.7237 60.6953 90.9234 65.0674 87.3228 68.668C83.7223 72.2685 79.3501 74.0688 74.2065 74.0688C69.0628 74.0688 64.6907 72.2685 61.0901 68.668C57.4895 65.0674 55.6892 60.6953 55.6892 55.5516H49.5168C49.5168 62.4283 51.9126 68.2624 56.7041 73.0539C61.4957 77.8455 67.3298 80.2412 74.2065 80.2412ZM55.6892 43.2067H92.7237C92.7237 38.0631 90.9234 33.6909 87.3228 30.0904C83.7223 26.4898 79.3501 24.6895 74.2065 24.6895C69.0628 24.6895 64.6907 26.4898 61.0901 30.0904C57.4895 33.6909 55.6892 38.0631 55.6892 43.2067Z" fill="#333332"/>
</g>
</svg>
