<svg width="149" height="149" viewBox="0 0 149 149" fill="none" xmlns="http://www.w3.org/2000/svg">
<mask id="mask0_2611_3533" style="mask-type:alpha" maskUnits="userSpaceOnUse" x="0" y="0" width="149" height="149">
<rect x="0.413086" width="148.138" height="148.138" fill="#D9D9D9"/>
</mask>
<g mask="url(#mask0_2611_3533)">
<path d="M38.6586 107.922C43.9052 104.147 49.4722 101.162 55.3598 98.9662C61.2473 96.7702 67.6215 95.6723 74.4824 95.6723C81.3432 95.6723 87.7174 96.7702 93.605 98.9662C99.4925 101.162 105.06 104.147 110.306 107.922C114.381 103.704 117.66 98.7229 120.141 92.9777C122.621 87.2326 123.862 80.9297 123.862 74.0688C123.862 60.3866 119.052 48.7362 109.434 39.1175C99.815 29.4988 88.1646 24.6895 74.4824 24.6895C60.8002 24.6895 49.1498 29.4988 39.5311 39.1175C29.9124 48.7362 25.1031 60.3866 25.1031 74.0688C25.1031 80.9297 26.3435 87.2326 28.8243 92.9777C31.3052 98.7229 34.5833 103.704 38.6586 107.922ZM74.4859 77.155C69.2844 77.155 64.8973 75.3698 61.3245 71.7994C57.7516 68.2288 55.9651 63.8428 55.9651 58.6413C55.9651 53.4398 57.7504 49.0527 61.3208 45.4799C64.8913 41.907 69.2773 40.1205 74.4788 40.1205C79.6803 40.1205 84.0675 41.9058 87.6403 45.4763C91.2132 49.0468 92.9996 53.4327 92.9996 58.6342C92.9996 63.8357 91.2144 68.2229 87.6438 71.7957C84.0734 75.3686 79.6874 77.155 74.4859 77.155ZM74.4824 129.621C66.7352 129.621 59.4826 128.178 52.7246 125.294C45.9667 122.41 40.087 118.467 35.0857 113.465C30.0845 108.464 26.1417 102.585 23.2572 95.8266C20.3728 89.0686 18.9307 81.816 18.9307 74.0688C18.9307 66.3216 20.3728 59.069 23.2572 52.3111C26.1417 45.5531 30.0845 39.6735 35.0857 34.6722C40.087 29.671 45.9667 25.7281 52.7246 22.8436C59.4826 19.9593 66.7352 18.5171 74.4824 18.5171C82.2296 18.5171 89.4822 19.9593 96.2402 22.8436C102.998 25.7281 108.878 29.671 113.879 34.6722C118.88 39.6735 122.823 45.5531 125.708 52.3111C128.592 59.069 130.034 66.3216 130.034 74.0688C130.034 81.816 128.592 89.0686 125.708 95.8266C122.823 102.585 118.88 108.464 113.879 113.465C108.878 118.467 102.998 122.41 96.2402 125.294C89.4822 128.178 82.2296 129.621 74.4824 129.621ZM74.4824 123.448C80.1721 123.448 85.7708 122.453 91.2785 120.463C96.7862 118.473 101.546 115.748 105.558 112.29C101.546 109.07 96.9049 106.523 91.6346 104.652C86.3643 102.78 80.6469 101.845 74.4824 101.845C68.3179 101.845 62.5807 102.761 57.2709 104.593C51.961 106.425 47.3396 108.99 43.4066 112.29C47.4187 115.748 52.1786 118.473 57.6863 120.463C63.194 122.453 68.7927 123.448 74.4824 123.448ZM74.4824 70.9826C77.9484 70.9826 80.8724 69.7916 83.2543 67.4097C85.6363 65.0278 86.8272 62.1038 86.8272 58.6378C86.8272 55.1718 85.6363 52.2478 83.2543 49.8659C80.8724 47.4839 77.9484 46.293 74.4824 46.293C71.0164 46.293 68.0924 47.4839 65.7105 49.8659C63.3285 52.2478 62.1376 55.1718 62.1376 58.6378C62.1376 62.1038 63.3285 65.0278 65.7105 67.4097C68.0924 69.7916 71.0164 70.9826 74.4824 70.9826Z" fill="#333332"/>
</g>
</svg>
