<svg width="31" height="31" viewBox="0 0 31 31" fill="none" xmlns="http://www.w3.org/2000/svg">
<g id="Captions 1">
<path id="Vector" d="M5.88672 22.1484L10.5742 9.64844H12.8242L17.5117 22.1484H15.3555L14.2305 18.9609H9.16797L8.04297 22.1484H5.88672ZM9.82422 17.1484H13.5742L11.7617 11.9609H11.6367L9.82422 17.1484ZM21.3555 22.4922C20.3346 22.4922 19.5326 22.2266 18.9492 21.6953C18.3659 21.1641 18.0742 20.4401 18.0742 19.5234C18.0742 18.6484 18.4128 17.9349 19.0898 17.3828C19.7669 16.8307 20.6367 16.5547 21.6992 16.5547C22.1784 16.5547 22.6211 16.5911 23.0273 16.6641C23.4336 16.737 23.7826 16.8568 24.0742 17.0234V16.5859C24.0742 16.0234 23.8815 15.5755 23.4961 15.2422C23.1107 14.9089 22.5846 14.7422 21.918 14.7422C21.4805 14.7422 21.069 14.8359 20.6836 15.0234C20.2982 15.2109 19.9701 15.4818 19.6992 15.8359L18.3555 14.8359C18.7513 14.2734 19.2513 13.8464 19.8555 13.5547C20.4596 13.263 21.1576 13.1172 21.9492 13.1172C23.2409 13.1172 24.2305 13.4245 24.918 14.0391C25.6055 14.6536 25.9492 15.5443 25.9492 16.7109V22.2109H24.1055V21.1484H24.0117C23.7409 21.5651 23.3763 21.8932 22.918 22.1328C22.4596 22.3724 21.9388 22.4922 21.3555 22.4922ZM21.668 20.9297C22.3346 20.9297 22.9023 20.6953 23.3711 20.2266C23.8398 19.7578 24.0742 19.1901 24.0742 18.5234C23.7826 18.3568 23.4492 18.2318 23.0742 18.1484C22.6992 18.0651 22.3555 18.0234 22.043 18.0234C21.3763 18.0234 20.8659 18.1536 20.5117 18.4141C20.1576 18.6745 19.9805 19.0443 19.9805 19.5234C19.9805 19.9401 20.1367 20.2786 20.4492 20.5391C20.7617 20.7995 21.168 20.9297 21.668 20.9297Z" fill="#333332" fill-opacity="0.8"/>
</g>
</svg>
