<svg width="31" height="31" viewBox="0 0 31 31" fill="none" xmlns="http://www.w3.org/2000/svg">
<g id="Encrypted detaiils 1">
<path id="Vector" d="M13.2051 19.6484H16.9551L16.2363 15.6172C16.653 15.4089 16.9811 15.1068 17.2207 14.7109C17.4603 14.3151 17.5801 13.8776 17.5801 13.3984C17.5801 12.7109 17.3353 12.1224 16.8457 11.6328C16.3561 11.1432 15.7676 10.8984 15.0801 10.8984C14.3926 10.8984 13.804 11.1432 13.3145 11.6328C12.8249 12.1224 12.5801 12.7109 12.5801 13.3984C12.5801 13.8776 12.6999 14.3151 12.9395 14.7109C13.179 15.1068 13.5072 15.4089 13.9238 15.6172L13.2051 19.6484ZM15.0801 28.3984C12.1842 27.6693 9.79362 26.0078 7.9082 23.4141C6.02279 20.8203 5.08008 17.9401 5.08008 14.7734V7.14844L15.0801 3.39844L25.0801 7.14844V14.7734C25.0801 17.9401 24.1374 20.8203 22.252 23.4141C20.3665 26.0078 17.9759 27.6693 15.0801 28.3984ZM15.0801 25.7734C17.2467 25.0859 19.0384 23.7109 20.4551 21.6484C21.8717 19.5859 22.5801 17.2943 22.5801 14.7734V8.86719L15.0801 6.05469L7.58008 8.86719V14.7734C7.58008 17.2943 8.28841 19.5859 9.70508 21.6484C11.1217 23.7109 12.9134 25.0859 15.0801 25.7734Z" fill="#333332" fill-opacity="0.8"/>
</g>
</svg>
