<svg width="26" height="24" viewBox="0 0 26 24" fill="none" xmlns="http://www.w3.org/2000/svg">
<path id="Vector" d="M3.12855 23.3526C2.34662 23.3526 1.67724 23.0742 1.1204 22.5174C0.563572 21.9606 0.285156 21.2912 0.285156 20.5092C0.285156 19.7273 0.563572 19.0579 1.1204 18.5011C1.67724 17.9443 2.34662 17.6658 3.12855 17.6658C3.91049 17.6658 4.57987 17.9443 5.1367 18.5011C5.69353 19.0579 5.97195 19.7273 5.97195 20.5092C5.97195 21.2912 5.69353 21.9606 5.1367 22.5174C4.57987 23.0742 3.91049 23.3526 3.12855 23.3526ZM3.12855 14.8224C2.34662 14.8224 1.67724 14.544 1.1204 13.9872C0.563572 13.4304 0.285156 12.761 0.285156 11.979C0.285156 11.1971 0.563572 10.5277 1.1204 9.9709C1.67724 9.41407 2.34662 9.13565 3.12855 9.13565C3.91049 9.13565 4.57987 9.41407 5.1367 9.9709C5.69353 10.5277 5.97195 11.1971 5.97195 11.979C5.97195 12.761 5.69353 13.4304 5.1367 13.9872C4.57987 14.544 3.91049 14.8224 3.12855 14.8224ZM3.12855 6.29226C2.34662 6.29226 1.67724 6.01384 1.1204 5.45701C0.563572 4.90018 0.285156 4.2308 0.285156 3.44886C0.285156 2.66693 0.563572 1.99755 1.1204 1.44072C1.67724 0.883885 2.34662 0.605469 3.12855 0.605469C3.91049 0.605469 4.57987 0.883885 5.1367 1.44072C5.69353 1.99755 5.97195 2.66693 5.97195 3.44886C5.97195 4.2308 5.69353 4.90018 5.1367 5.45701C4.57987 6.01384 3.91049 6.29226 3.12855 6.29226ZM11.6587 6.29226C10.8768 6.29226 10.2074 6.01384 9.65059 5.45701C9.09376 4.90018 8.81534 4.2308 8.81534 3.44886C8.81534 2.66693 9.09376 1.99755 9.65059 1.44072C10.2074 0.883885 10.8768 0.605469 11.6587 0.605469C12.4407 0.605469 13.1101 0.883885 13.6669 1.44072C14.2237 1.99755 14.5021 2.66693 14.5021 3.44886C14.5021 4.2308 14.2237 4.90018 13.6669 5.45701C13.1101 6.01384 12.4407 6.29226 11.6587 6.29226ZM20.1889 6.29226C19.407 6.29226 18.7376 6.01384 18.1808 5.45701C17.6239 4.90018 17.3455 4.2308 17.3455 3.44886C17.3455 2.66693 17.6239 1.99755 18.1808 1.44072C18.7376 0.883885 19.407 0.605469 20.1889 0.605469C20.9709 0.605469 21.6402 0.883885 22.1971 1.44072C22.7539 1.99755 23.0323 2.66693 23.0323 3.44886C23.0323 4.2308 22.7539 4.90018 22.1971 5.45701C21.6402 6.01384 20.9709 6.29226 20.1889 6.29226ZM11.6587 14.8224C10.8768 14.8224 10.2074 14.544 9.65059 13.9872C9.09376 13.4304 8.81534 12.761 8.81534 11.979C8.81534 11.1971 9.09376 10.5277 9.65059 9.9709C10.2074 9.41407 10.8768 9.13565 11.6587 9.13565C12.4407 9.13565 13.1101 9.41407 13.6669 9.9709C14.2237 10.5277 14.5021 11.1971 14.5021 11.979C14.5021 12.761 14.2237 13.4304 13.6669 13.9872C13.1101 14.544 12.4407 14.8224 11.6587 14.8224ZM13.0804 23.3526V18.9809L20.9353 11.1616C21.1486 10.9483 21.3855 10.7943 21.6462 10.6995C21.9068 10.6047 22.1675 10.5574 22.4281 10.5574C22.7124 10.5574 22.9849 10.6107 23.2456 10.7173C23.5062 10.8239 23.7432 10.9839 23.9564 11.1971L25.2715 12.5122C25.4611 12.7254 25.6091 12.9624 25.7158 13.223C25.8224 13.4837 25.8757 13.7443 25.8757 14.005C25.8757 14.2656 25.8283 14.5322 25.7335 14.8047C25.6388 15.0772 25.4847 15.32 25.2715 15.5333L17.4522 23.3526H13.0804ZM15.213 21.2201H16.5636L20.8642 16.8839L20.2245 16.2086L19.5492 15.5688L15.213 19.8695V21.2201ZM20.2245 16.2086L19.5492 15.5688L20.8642 16.8839L20.2245 16.2086Z" fill="#333332" fill-opacity="0.8"/>
</svg>
