<svg width="31" height="31" viewBox="0 0 31 31" fill="none" xmlns="http://www.w3.org/2000/svg">
<g id="Personalized story telling 2 1">
<path id="Vector" d="M8.41797 18.4785H12.2305L18.4805 12.2285C18.668 12.041 18.8086 11.8275 18.9023 11.5879C18.9961 11.3483 19.043 11.1139 19.043 10.8848C19.043 10.6556 18.9909 10.4316 18.8867 10.2129C18.7826 9.99414 18.6471 9.79102 18.4805 9.60352L17.3555 8.41602C17.168 8.22852 16.9596 8.08789 16.7305 7.99414C16.5013 7.90039 16.2617 7.85352 16.0117 7.85352C15.7826 7.85352 15.5482 7.90039 15.3086 7.99414C15.069 8.08789 14.8555 8.22852 14.668 8.41602L8.41797 14.666V18.4785ZM10.293 16.6035V15.416L13.4492 12.2598L14.0742 12.8223L14.6367 13.4473L11.4805 16.6035H10.293ZM14.0742 12.8223L14.6367 13.4473L13.4492 12.2598L14.0742 12.8223ZM14.8867 18.4785H23.418V15.9785H17.3867L14.8867 18.4785ZM3.41797 28.4785V5.97852C3.41797 5.29102 3.66276 4.70247 4.15234 4.21289C4.64193 3.72331 5.23047 3.47852 5.91797 3.47852H25.918C26.6055 3.47852 27.194 3.72331 27.6836 4.21289C28.1732 4.70247 28.418 5.29102 28.418 5.97852V20.9785C28.418 21.666 28.1732 22.2546 27.6836 22.7441C27.194 23.2337 26.6055 23.4785 25.918 23.4785H8.41797L3.41797 28.4785ZM7.35547 20.9785H25.918V5.97852H5.91797V22.3848L7.35547 20.9785Z" fill="#333332" fill-opacity="0.8"/>
</g>
</svg>
