<svg width="31" height="31" viewBox="0 0 31 31" fill="none" xmlns="http://www.w3.org/2000/svg">
<g id="3 Revisions 1" clip-path="url(#clip0_2548_3547)">
<path id="Vector" d="M9.89258 26.4668C7.72591 25.4668 5.96549 23.9564 4.61133 21.9355C3.25716 19.9147 2.58008 17.6335 2.58008 15.0918C2.58008 14.5501 2.60612 14.0189 2.6582 13.498C2.71029 12.9772 2.79883 12.4668 2.92383 11.9668L1.48633 12.8105L0.236328 10.6543L6.20508 7.2168L9.64258 13.1543L7.45508 14.4043L5.76758 11.4668C5.53841 12.0293 5.36654 12.6126 5.25195 13.2168C5.13737 13.821 5.08008 14.446 5.08008 15.0918C5.08008 17.1126 5.63216 18.9512 6.73633 20.6074C7.84049 22.2637 9.30925 23.4876 11.1426 24.2793L9.89258 26.4668ZM19.4551 11.3105V8.81055H22.8613C21.903 7.62305 20.7467 6.70117 19.3926 6.04492C18.0384 5.38867 16.6009 5.06055 15.0801 5.06055C13.9342 5.06055 12.8509 5.23763 11.8301 5.5918C10.8092 5.94596 9.87175 6.44596 9.01758 7.0918L7.76758 4.9043C8.80925 4.17513 9.94466 3.60221 11.1738 3.18555C12.403 2.76888 13.7051 2.56055 15.0801 2.56055C16.7259 2.56055 18.2988 2.86784 19.7988 3.48242C21.2988 4.09701 22.6426 4.98763 23.8301 6.1543V4.43555H26.3301V11.3105H19.4551ZM18.6426 30.0605L12.6738 26.623L16.1113 20.6855L18.2676 21.9355L16.4863 24.998C18.9447 24.6439 20.9915 23.5293 22.627 21.6543C24.2624 19.7793 25.0801 17.5814 25.0801 15.0605C25.0801 14.8314 25.0749 14.6178 25.0645 14.4199C25.054 14.222 25.028 14.0189 24.9863 13.8105H27.5176C27.5384 14.0189 27.554 14.222 27.5645 14.4199C27.5749 14.6178 27.5801 14.8314 27.5801 15.0605C27.5801 17.873 26.7415 20.3887 25.0645 22.6074C23.3874 24.8262 21.2051 26.321 18.5176 27.0918L19.8926 27.9043L18.6426 30.0605Z" fill="#333332" fill-opacity="0.8"/>
</g>
<defs>
<clipPath id="clip0_2548_3547">
<rect width="30" height="30" fill="white" transform="translate(0.0800781 0.0605469)"/>
</clipPath>
</defs>
</svg>
