<svg width="31" height="31" viewBox="0 0 31 31" fill="none" xmlns="http://www.w3.org/2000/svg">
<g id="72 hours 1">
<path id="Vector" d="M20.043 20.9355L21.793 19.1855L17.168 14.5605V8.81055H14.668V15.5605L20.043 20.9355ZM15.918 27.5605C14.1888 27.5605 12.5638 27.2324 11.043 26.5762C9.52214 25.9199 8.19922 25.0293 7.07422 23.9043C5.94922 22.7793 5.05859 21.4564 4.40234 19.9355C3.74609 18.4147 3.41797 16.7897 3.41797 15.0605C3.41797 13.3314 3.74609 11.7064 4.40234 10.1855C5.05859 8.66471 5.94922 7.3418 7.07422 6.2168C8.19922 5.0918 9.52214 4.20117 11.043 3.54492C12.5638 2.88867 14.1888 2.56055 15.918 2.56055C17.6471 2.56055 19.2721 2.88867 20.793 3.54492C22.3138 4.20117 23.6367 5.0918 24.7617 6.2168C25.8867 7.3418 26.7773 8.66471 27.4336 10.1855C28.0898 11.7064 28.418 13.3314 28.418 15.0605C28.418 16.7897 28.0898 18.4147 27.4336 19.9355C26.7773 21.4564 25.8867 22.7793 24.7617 23.9043C23.6367 25.0293 22.3138 25.9199 20.793 26.5762C19.2721 27.2324 17.6471 27.5605 15.918 27.5605ZM15.918 25.0605C18.6888 25.0605 21.0482 24.0866 22.9961 22.1387C24.944 20.1908 25.918 17.8314 25.918 15.0605C25.918 12.2897 24.944 9.93034 22.9961 7.98242C21.0482 6.03451 18.6888 5.06055 15.918 5.06055C13.1471 5.06055 10.7878 6.03451 8.83984 7.98242C6.89193 9.93034 5.91797 12.2897 5.91797 15.0605C5.91797 17.8314 6.89193 20.1908 8.83984 22.1387C10.7878 24.0866 13.1471 25.0605 15.918 25.0605Z" fill="#333332" fill-opacity="0.8"/>
</g>
</svg>
